<?xml version="1.0" standalone="no"?>
<!DOCTYPE svg PUBLIC "-//W3C//DTD SVG 20010904//EN"
 "http://www.w3.org/TR/2001/REC-SVG-20010904/DTD/svg10.dtd">
<svg version="1.0" xmlns="http://www.w3.org/2000/svg"
 width="350.000000pt" height="243.000000pt" viewBox="0 0 350.000000 243.000000"
 preserveAspectRatio="xMidYMid meet">
<metadata>
Created by potrace 1.13, written by Peter Selinger 2001-2015
</metadata>
<g transform="translate(0.000000,243.000000) scale(0.100000,-0.100000)"
fill="#000000" stroke="none">
<path d="M0 2061 c0 -269 3 -372 12 -377 6 -4 8 -3 5 3 -4 6 12 16 36 23 23 7
51 18 61 26 16 11 23 11 35 1 12 -10 13 -9 6 3 -4 8 3 5 16 -6 13 -12 39 -29
57 -38 17 -9 32 -21 32 -27 0 -14 -35 -25 -80 -23 -22 0 -37 -2 -34 -5 3 -3 9
-6 12 -7 25 -2 92 -29 92 -36 0 -5 4 -7 8 -4 12 7 38 -12 29 -21 -5 -4 -12 -1
-17 7 -6 8 -10 10 -10 5 0 -6 -9 -11 -20 -12 -11 -1 -18 1 -16 5 3 4 -4 8 -14
8 -10 0 -16 -4 -13 -9 3 -5 0 -7 -8 -5 -8 3 -13 10 -12 15 2 10 1 11 -69 14
-32 1 -48 6 -48 15 0 7 -8 11 -20 9 -11 -2 -24 3 -29 13 -7 11 -10 -275 -11
-811 l0 -827 1750 0 1750 0 0 977 c0 575 -4 984 -10 993 -5 9 -5 19 2 28 9 10
8 12 -2 10 -8 -2 -15 2 -15 7 -2 10 -9 32 -26 74 -9 21 -8 23 5 12 12 -10 14
-9 9 8 -3 12 -10 18 -16 14 -7 -4 -8 0 -3 12 5 15 4 16 -8 6 -11 -9 -16 -9
-22 0 -4 8 -3 9 4 5 8 -5 12 4 12 29 0 26 4 34 13 30 6 -4 3 0 -7 9 -10 8 -23
13 -27 10 -5 -3 -9 4 -9 16 0 14 -4 19 -12 14 -8 -5 -9 -2 -5 9 3 10 3 17 -2
17 -4 0 -8 7 -8 15 0 14 10 19 29 16 4 0 5 6 1 15 -5 13 -7 13 -14 2 -7 -10
-9 -9 -9 5 0 11 -4 15 -12 11 -7 -4 -8 -3 -4 5 4 6 12 9 17 6 5 -4 9 -1 9 4 0
6 -5 11 -11 11 -5 0 -8 4 -5 9 3 5 -1 12 -10 15 -8 3 -12 11 -8 17 4 8 3 9 -4
5 -7 -4 -12 -3 -12 2 0 6 -27 10 -60 11 -34 0 -58 -3 -55 -9 3 -5 1 -11 -4
-14 -10 -6 -7 -57 4 -75 5 -9 13 -7 28 6 22 18 22 18 0 -7 -12 -14 -22 -29
-23 -35 -1 -5 -3 -12 -5 -13 -2 -2 -2 4 -1 15 2 10 -4 28 -12 41 -8 12 -11 22
-7 22 4 0 2 6 -4 14 -9 10 -8 16 4 26 22 18 9 30 -34 30 -30 0 -40 -4 -44 -20
-3 -11 -2 -20 3 -20 4 0 10 -15 13 -32 3 -18 10 -51 16 -73 15 -57 13 -110 -4
-125 -16 -13 -21 -55 -5 -45 5 3 7 12 4 19 -3 8 -1 17 5 21 13 8 10 -22 -5
-49 -10 -16 -12 -17 -17 -1 -4 9 -12 13 -17 10 -6 -4 -9 -1 -8 6 5 21 -23 22
-29 0 -3 -11 -9 -19 -13 -16 -9 6 -1 53 11 61 15 9 10 93 -8 145 -16 45 -33
64 -33 38 0 -5 -5 -7 -11 -4 -6 5 -4 12 8 20 17 13 17 14 1 20 -9 4 -21 4 -26
1 -5 -3 -7 5 -5 19 l5 24 -208 1 -209 0 -20 -26 c-11 -15 -26 -33 -32 -40 -7
-7 -13 -18 -13 -24 0 -13 -68 -80 -81 -80 -5 0 -8 -5 -7 -12 4 -14 -59 -58
-83 -58 -14 0 -19 7 -19 25 0 14 -5 25 -11 25 -6 0 -8 7 -5 15 3 9 -1 18 -9
21 -18 7 -20 45 -2 63 10 11 9 12 -1 6 -10 -5 -12 1 -9 26 3 22 9 33 17 31 11
-3 11 0 0 12 -11 14 -68 16 -466 16 l-454 0 -15 -32 -15 -33 6 33 6 32 -569 0
-569 0 11 -62 c5 -35 14 -69 18 -75 15 -24 41 -205 39 -280 -1 -37 -33 -133
-45 -133 -2 0 -4 32 -5 70 -1 39 -6 79 -11 89 -6 10 -7 22 -3 26 14 14 10 199
-5 228 -7 15 -11 32 -8 37 3 6 3 10 -2 10 -4 0 -8 19 -8 42 l0 43 -112 3 -113
3 0 -370z m1090 84 c33 -32 43 -36 104 -40 61 -4 69 -3 73 15 7 28 54 26 84
-4 14 -13 41 -26 64 -29 22 -3 53 -9 69 -13 19 -4 31 -2 36 6 13 22 59 14 85
-14 13 -14 33 -26 45 -26 12 0 35 -7 52 -16 30 -15 34 -15 66 2 41 22 61 12
76 -39 6 -19 22 -49 36 -64 14 -16 36 -45 49 -64 14 -18 30 -38 38 -42 7 -4
13 -17 13 -28 0 -11 7 -22 15 -25 8 -4 15 -14 15 -24 0 -10 7 -20 15 -24 8 -3
15 -10 15 -16 0 -20 40 -100 50 -100 5 0 7 -7 4 -15 -4 -8 -1 -15 5 -15 6 0
11 -7 11 -15 0 -7 7 -18 17 -23 14 -8 15 -16 5 -53 -7 -28 -8 -47 -2 -53 6 -6
10 -24 10 -40 0 -17 4 -37 9 -44 4 -7 4 -34 0 -60 -4 -26 -4 -51 -1 -57 9 -15
10 -75 1 -75 -4 0 -5 -9 -2 -20 4 -13 0 -20 -10 -20 -8 0 -17 -9 -20 -20 -3
-11 -11 -20 -19 -20 -10 0 -9 3 2 10 13 8 13 10 -1 10 -24 0 -41 -24 -33 -46
6 -15 3 -14 -12 5 -18 21 -21 22 -33 7 -7 -9 -24 -16 -38 -16 -15 0 -27 -8
-33 -22 -5 -13 -9 -17 -9 -9 -1 9 -7 11 -18 6 -10 -4 -24 -8 -30 -8 -7 0 -13
-3 -13 -7 0 -3 -9 -6 -20 -6 -11 0 -20 5 -20 10 0 5 -8 0 -18 -12 -15 -17 -21
-19 -31 -9 -10 9 -11 8 -6 -5 5 -13 1 -16 -19 -14 -18 2 -23 0 -17 -8 7 -8 -1
-11 -24 -11 -22 0 -31 4 -28 13 4 10 0 10 -20 1 -15 -7 -24 -16 -20 -22 3 -5
9 -3 15 4 8 11 9 11 6 1 -2 -8 -7 -13 -12 -12 -5 1 -13 -4 -17 -12 -7 -10 -9
-8 -9 7 0 18 -1 18 -15 -2 -9 -13 -22 -20 -30 -16 -11 4 -14 0 -9 -13 6 -18 6
-18 -8 0 -15 19 -15 19 -35 -1 -24 -24 -74 -39 -136 -42 -16 -1 -26 -5 -22
-11 3 -5 -1 -10 -9 -10 -9 0 -17 8 -17 18 -1 16 -2 16 -6 0 -2 -10 -9 -19 -14
-19 -10 -2 -25 -5 -36 -9 -19 -6 -39 -5 -55 3 -14 6 -18 3 -18 -10 0 -14 -2
-15 -9 -5 -10 17 -81 22 -100 8 -12 -9 -13 -8 -6 4 7 12 6 13 -7 3 -21 -18
-31 -3 -12 18 12 14 13 18 2 25 -7 4 -10 4 -6 -1 9 -9 -9 -35 -24 -35 -5 0 -6
6 -2 13 5 7 0 6 -11 -3 -14 -11 -19 -12 -22 -2 -3 6 -9 10 -14 6 -14 -9 -10 8
7 27 10 11 12 19 4 24 -6 3 -9 1 -8 -5 2 -7 -5 -17 -14 -23 -13 -9 -20 -8 -30
2 -11 12 -10 13 4 8 13 -4 15 -2 11 10 -4 11 -2 14 5 9 7 -4 12 -5 12 -2 0 3
-4 7 -9 11 -15 8 -50 -35 -44 -53 4 -9 2 -13 -4 -9 -6 4 -14 0 -17 -9 -3 -8
-11 -12 -17 -8 -8 5 -9 3 -4 -6 6 -10 4 -12 -8 -7 -11 4 -14 2 -11 -7 4 -10
-3 -13 -25 -10 -17 2 -31 -1 -31 -7 0 -6 5 -7 12 -3 7 4 8 3 4 -5 -4 -6 -12
-9 -17 -6 -5 4 -9 0 -9 -7 0 -10 -2 -10 -9 1 -5 7 -13 11 -19 7 -6 -3 -14 -1
-18 5 -4 7 -3 9 4 5 6 -3 13 -2 17 4 4 6 -5 10 -20 10 -14 0 -24 -4 -21 -9 4
-5 -12 -24 -35 -42 -28 -22 -39 -37 -36 -50 3 -11 1 -17 -4 -13 -5 3 -10 -29
-10 -73 -2 -97 -3 -102 -16 -133 -6 -14 -8 -29 -5 -34 3 -5 0 -6 -7 -2 -6 4
-8 13 -4 19 4 7 -2 5 -13 -3 -10 -8 -16 -11 -12 -6 4 5 1 21 -7 36 -19 36 -27
95 -26 192 0 49 -5 88 -14 105 -13 25 -13 29 0 39 21 16 19 26 -5 19 -12 -4
-20 -2 -20 5 0 6 4 9 9 5 13 -7 18 3 25 49 l6 40 -21 -20 c-14 -11 -19 -13
-14 -4 13 21 15 40 4 40 -5 0 -9 10 -9 21 0 18 -3 19 -15 9 -12 -10 -12 -5 1
41 9 30 20 59 25 65 5 6 6 13 3 16 -2 3 -7 18 -9 34 -13 82 -18 99 -25 104 -4
3 -10 21 -11 40 -3 27 0 35 14 38 12 3 17 -3 17 -21 0 -14 7 -30 15 -37 9 -7
14 -19 11 -26 -3 -7 0 -16 5 -20 8 -4 8 18 3 72 -9 81 -9 140 -1 184 2 14 7
45 12 70 4 25 12 50 17 57 5 7 7 17 3 23 -3 6 7 33 24 60 17 28 31 55 31 60 0
5 12 23 28 39 15 16 54 59 86 95 33 36 68 66 78 66 10 0 18 5 18 10 0 6 7 10
15 10 15 0 101 137 111 177 3 12 13 24 22 26 10 3 19 5 22 6 2 0 20 -15 40
-34z m1735 -666 c6 -3 45 -7 89 -8 l79 -2 71 -55 c39 -31 73 -60 74 -65 2 -5
8 -9 13 -9 6 0 24 -13 42 -30 18 -16 35 -30 40 -30 4 0 7 -4 7 -9 0 -6 11 -22
24 -36 38 -41 83 -134 107 -221 31 -112 33 -139 15 -184 -9 -22 -14 -40 -12
-40 13 0 -88 -107 -128 -135 -27 -19 -29 -27 -42 -135 -13 -113 -33 -220 -44
-230 -19 -18 -51 -75 -56 -100 -4 -16 -13 -35 -20 -41 -8 -6 -14 -18 -14 -25
0 -8 -4 -14 -10 -14 -5 0 -10 6 -10 13 0 9 -16 13 -52 13 -68 0 -173 10 -185
17 -10 6 -59 18 -82 19 -23 2 -50 30 -44 47 4 14 3 14 -9 1 -20 -23 -39 -23
-45 0 -3 11 -9 17 -14 14 -5 -3 -9 0 -9 6 0 6 -4 9 -9 6 -5 -3 -11 3 -14 14
-3 11 0 20 5 20 6 0 4 8 -3 17 -8 9 -9 14 -3 10 7 -4 18 1 25 11 12 15 12 16
-1 5 -20 -15 -43 -2 -34 20 3 9 10 15 14 12 5 -3 6 3 4 12 -3 12 6 25 24 37
16 11 37 32 48 48 10 15 25 28 32 28 6 0 12 7 12 16 0 8 -4 12 -10 9 -5 -3
-10 -1 -10 5 0 6 -4 9 -9 5 -5 -3 -12 -1 -16 5 -10 17 70 90 99 90 14 0 26 -5
26 -11 0 -6 9 -9 20 -6 10 3 21 0 23 -7 3 -8 9 -7 20 3 10 7 17 9 17 3 0 -5
11 -9 25 -9 14 0 25 4 25 9 0 5 7 5 18 0 18 -9 41 -10 43 -2 1 3 -1 15 -5 28
-6 19 -10 21 -22 11 -11 -9 -14 -8 -14 2 0 12 -2 12 -9 0 -7 -11 -11 -10 -20
5 -6 11 -11 13 -11 6 0 -7 -5 -10 -11 -6 -6 3 -45 8 -87 9 -99 4 -94 3 -87 15
3 6 -1 7 -10 4 -11 -5 -18 0 -21 14 -4 14 -11 18 -26 14 -14 -3 -19 -1 -14 6
5 8 0 12 -13 12 -11 0 -27 7 -36 16 -10 10 -27 15 -44 12 -23 -3 -28 -1 -23
11 5 14 4 14 -12 2 -15 -12 -17 -12 -14 0 2 9 -6 14 -23 15 -34 1 -52 13 -45
30 3 9 -5 7 -26 -6 -31 -19 -63 -17 -37 2 10 7 7 8 -9 5 -23 -6 -24 -5 -5 15
10 12 12 18 6 14 -26 -15 -53 -15 -53 0 0 30 -19 55 -35 46 -5 -3 -7 -2 -3 3
4 4 -3 26 -16 49 -16 29 -21 48 -16 66 4 14 3 35 -1 47 -5 12 -4 25 0 27 16
11 9 55 -10 61 -18 6 -21 36 -6 51 4 4 7 17 7 28 0 27 124 158 168 177 17 8
32 17 32 20 0 4 11 10 25 13 14 4 25 11 25 16 0 6 8 10 18 10 9 0 30 7 46 15
15 8 42 15 60 15 17 0 36 4 43 8 14 9 164 10 178 1z"/>
<path d="M1624 1619 c-3 -6 2 -21 11 -35 11 -17 14 -35 10 -54 -8 -34 23 -60
71 -60 28 0 33 4 39 29 3 17 1 39 -5 51 -7 12 -10 30 -7 40 3 11 -2 22 -12 26
-26 11 -100 13 -107 3z"/>
<path d="M2674 1260 c-22 -9 -54 -51 -54 -71 0 -7 10 3 23 22 16 24 31 35 54
37 l31 3 -5 -45 c-5 -37 -1 -50 22 -80 22 -29 34 -36 63 -36 19 0 50 10 69 21
29 18 34 26 31 53 -5 49 -46 79 -123 91 -22 3 -51 8 -65 10 -14 2 -34 0 -46
-5z"/>
<path d="M3019 1199 c-6 -12 -8 -34 -5 -50 5 -28 4 -29 -30 -29 -19 0 -33 -4
-30 -9 9 -14 68 -22 82 -10 13 10 38 1 77 -30 15 -13 19 -12 32 5 16 22 20 58
5 49 -5 -3 -10 1 -10 10 0 9 5 13 11 9 7 -4 10 -1 7 7 -3 8 -11 13 -18 11 -8
-2 -10 3 -7 13 13 31 -3 45 -54 45 -39 0 -50 -4 -60 -21z"/>
<path d="M2985 940 c-11 -5 -15 -9 -8 -9 6 -1 14 -9 16 -18 4 -17 5 -17 6 0 0
9 7 17 15 17 9 0 12 -8 8 -26 -4 -21 -9 -25 -36 -22 -27 3 -31 6 -28 31 3 26
1 27 -25 21 -36 -8 -53 -30 -54 -68 -2 -48 1 -59 23 -75 12 -8 28 -22 37 -33
15 -18 67 -24 86 -10 29 20 45 64 45 120 0 48 -3 61 -17 65 -10 2 -25 7 -33
10 -8 3 -24 2 -35 -3z"/>
</g>
</svg>
